<?xml version="1.0" standalone="no"?>
<!DOCTYPE svg PUBLIC "-//W3C//DTD SVG 20010904//EN"
 "http://www.w3.org/TR/2001/REC-SVG-20010904/DTD/svg10.dtd">
<svg version="1.0" xmlns="http://www.w3.org/2000/svg"
 width="192.000000pt" height="192.000000pt" viewBox="0 0 192.000000 192.000000"
 preserveAspectRatio="xMidYMid meet">

<g transform="translate(0.000000,192.000000) scale(0.100000,-0.100000)"
fill="#000000" stroke="none">
<path d="M406 1272 c-6 -11 178 -567 195 -588 15 -18 132 -19 146 -1 16 21
203 578 197 588 -6 11 -84 12 -100 1 -6 -4 -44 -112 -85 -239 -40 -128 -76
-233 -79 -233 -3 0 -40 107 -81 238 l-75 237 -56 3 c-31 2 -59 -1 -62 -6z"/>
<path d="M974 1266 c-3 -8 -4 -29 -2 -48 l3 -33 83 -3 82 -3 0 -248 c0 -272
-3 -261 60 -261 63 0 60 -11 60 261 l0 248 83 3 82 3 0 45 0 45 -223 3 c-185
2 -223 0 -228 -12z"/>
</g>
</svg>
